<?xml version="1.0" standalone="no"?>
<!DOCTYPE svg PUBLIC "-//W3C//DTD SVG 20010904//EN"
 "http://www.w3.org/TR/2001/REC-SVG-20010904/DTD/svg10.dtd">
<svg version="1.0" xmlns="http://www.w3.org/2000/svg"
 width="24.000000pt" height="24.000000pt" viewBox="0 0 24.000000 24.000000"
 preserveAspectRatio="xMidYMid meet">

<g transform="translate(0.000000,24.000000) scale(0.100000,-0.100000)"
fill="#000000" stroke="none">
<path d="M13 229 c-19 -19 -16 -47 7 -61 11 -7 20 -24 20 -38 0 -18 17 -42 53
-78 29 -29 57 -52 63 -52 13 0 84 73 84 86 0 5 -24 33 -53 62 -46 46 -57 52
-94 52 -23 0 -45 -5 -49 -11 -4 -7 2 -9 17 -7 16 2 25 -3 27 -14 3 -13 -3 -18
-20 -17 -22 0 -22 1 -3 9 18 8 17 9 -6 9 -37 1 -55 24 -34 44 11 12 22 13 47
6 31 -8 48 -5 35 7 -13 13 -82 15 -94 3z m116 -105 c-11 -14 -10 -16 6 -14 37
4 45 0 45 -23 0 -16 -6 -23 -21 -24 -17 -2 -19 1 -10 10 18 18 13 25 -14 19
-22 -4 -25 -1 -25 22 0 17 5 26 16 26 14 0 14 -2 3 -16z"/>
</g>
</svg>
