<?xml version="1.0" standalone="no"?>
<!DOCTYPE svg PUBLIC "-//W3C//DTD SVG 20010904//EN"
 "http://www.w3.org/TR/2001/REC-SVG-20010904/DTD/svg10.dtd">
<svg version="1.0" xmlns="http://www.w3.org/2000/svg"
 width="512.000000pt" height="512.000000pt" viewBox="0 0 512.000000 512.000000"
 preserveAspectRatio="xMidYMid meet">
<metadata>
Created by potrace 1.16, written by Peter Selinger 2001-2019
</metadata>
<g transform="translate(0.000000,512.000000) scale(0.100000,-0.100000)"
fill="#000000" stroke="none">
<path d="M2460 4460 c-19 -10 -47 -31 -62 -47 -27 -28 -58 -99 -58 -133 0 -15
-17 -19 -112 -30 -364 -39 -779 -161 -971 -284 -190 -122 -348 -354 -387 -566
-6 -36 -14 -71 -16 -78 -2 -8 -23 3 -58 32 -124 101 -282 73 -351 -63 -22 -44
-23 -134 -1 -185 11 -26 84 -108 211 -235 l194 -196 3 -765 3 -765 27 -73 c70
-192 217 -339 407 -404 l66 -23 1205 0 1205 0 66 23 c190 65 342 218 411 412
l23 65 3 765 3 765 194 196 c127 127 200 209 211 235 22 51 21 141 -1 185 -69
136 -227 164 -351 63 -35 -29 -56 -40 -58 -32 -2 7 -10 42 -16 78 -41 225
-218 471 -424 589 -192 110 -570 218 -902 258 l-140 17 -12 50 c-14 60 -54
112 -108 143 -51 29 -152 31 -204 3z m530 -663 c265 -47 534 -133 638 -204 51
-35 98 -85 137 -145 l17 -28 -1221 0 -1222 0 15 28 c63 120 199 200 478 280
275 79 459 102 773 98 202 -3 263 -8 385 -29z m848 -1689 c-3 -827 -4 -875
-22 -910 -24 -50 -86 -104 -133 -117 -53 -15 -2193 -15 -2246 0 -47 13 -109
67 -133 117 -18 35 -19 83 -22 910 l-3 872 1281 0 1281 0 -3 -872z"/>
<path d="M2033 1685 c-32 -16 -61 -41 -79 -67 -26 -37 -29 -49 -29 -124 0 -75
3 -86 30 -125 17 -23 50 -53 74 -66 l44 -23 487 0 487 0 44 23 c27 14 57 42
77 73 32 47 34 53 30 125 -4 95 -34 145 -111 184 l-51 25 -476 0 -476 0 -51
-25z"/>
</g>
</svg>
