<?xml version="1.0" encoding="UTF-8"?>
<svg version="1.1" xmlns="http://www.w3.org/2000/svg" width="495" height="95">
<path d="M0 0 C3.25 1.9375 3.25 1.9375 5 5 C5.17089844 7.26782227 5.17089844 7.26782227 5.109375 9.69140625 C5.09358398 10.49908447 5.07779297 11.3067627 5.06152344 12.13891602 C5.0412207 12.75307373 5.02091797 13.36723145 5 14 C6.21816406 13.95359375 7.43632813 13.9071875 8.69140625 13.859375 C10.31507948 13.82183342 11.93877945 13.78543583 13.5625 13.75 C14.36236328 13.71648438 15.16222656 13.68296875 15.98632812 13.6484375 C21.87315325 13.55232607 25.17632172 14.58527877 30 18 C33.21064084 21.86923383 34.20921503 24.05415673 34 29 C34.79664062 28.94199219 35.59328125 28.88398438 36.4140625 28.82421875 C46.17039394 28.40880318 46.17039394 28.40880318 49.75 30.8125 C52.60064992 34.85092072 52.60455678 37.54097072 52.50390625 42.37890625 C51.92945047 45.36696694 51.1400193 46.84986241 49 49 C48.01 49 47.02 49 46 49 C46 49.66 46 50.32 46 51 C42.04 51 38.08 51 34 51 C34.0314209 51.99854004 34.0628418 52.99708008 34.09521484 54.02587891 C34.20424511 57.74918034 34.27284952 61.47234237 34.32958984 65.19677734 C34.35966691 66.80509204 34.40054123 68.41324398 34.45263672 70.02099609 C34.52586612 72.33992711 34.55954284 74.65668178 34.5859375 76.9765625 C34.61690521 77.68930328 34.64787292 78.40204407 34.67977905 79.13638306 C34.68221033 82.78583627 34.09878223 85.56270292 31.91870117 88.45385742 C26.74684302 92.9401238 19.16628716 91.83611375 12.71484375 91.76171875 C11.21081742 91.76322246 9.70679189 91.76665565 8.20277405 91.77192688 C5.05787978 91.77624971 1.91401403 91.75948602 -1.23071289 91.72729492 C-5.25506904 91.68747804 -9.27750131 91.69683181 -13.30191898 91.72152996 C-16.40506172 91.73573295 -19.50775732 91.72561162 -22.61086845 91.70801735 C-24.09437428 91.70218185 -25.57792612 91.7034488 -27.06141853 91.71204185 C-29.13710883 91.72006336 -31.21000723 91.69572624 -33.28540039 91.6628418 C-34.4642128 91.65584763 -35.64302521 91.64885345 -36.8575592 91.64164734 C-40.8907351 90.81812297 -42.37655646 89.08651075 -45 86 C-45.495 85.505 -45.495 85.505 -46 85 C-46.08847743 82.47905924 -46.11527301 79.98569107 -46.09765625 77.46484375 C-46.0962413 76.71159317 -46.09482635 75.95834259 -46.09336853 75.18226624 C-46.08775376 72.7673044 -46.07519883 70.35243399 -46.0625 67.9375 C-46.0574869 66.30403779 -46.05292366 64.67057414 -46.04882812 63.03710938 C-46.03777954 59.02470415 -46.02050506 55.01236759 -46 51 C-46.91579834 51.02175293 -46.91579834 51.02175293 -47.85009766 51.04394531 C-48.65495605 51.05522461 -49.45981445 51.06650391 -50.2890625 51.078125 C-51.48329834 51.09987793 -51.48329834 51.09987793 -52.70166016 51.12207031 C-56.88578589 50.89984141 -59.84887554 49.26376432 -62.63671875 46.203125 C-65.00061433 42.38296136 -64.67067999 38.34139093 -64 34 C-62.125 31.375 -62.125 31.375 -60 30 C-59.34 30 -58.68 30 -58 30 C-58 29.34 -58 28.68 -58 28 C-54.04 28.33 -50.08 28.66 -46 29 C-46 27.35 -46 25.7 -46 24 C-45 21.6875 -45 21.6875 -44 20 C-43.34 20 -42.68 20 -42 20 C-42 19.34 -42 18.68 -42 18 C-36.32146877 14.1279277 -32.35417692 13.46541724 -25.5625 13.75 C-24.73556641 13.76804687 -23.90863281 13.78609375 -23.05664062 13.8046875 C-21.03725067 13.8513786 -19.01846555 13.92310607 -17 14 C-17.02030273 13.38584229 -17.04060547 12.77168457 -17.06152344 12.13891602 C-17.08520996 10.92739868 -17.08520996 10.92739868 -17.109375 9.69140625 C-17.12967773 8.89162354 -17.14998047 8.09184082 -17.17089844 7.26782227 C-17 5 -17 5 -15.25 1.9375 C-10.28264831 -1.02380582 -5.63257487 -0.94135575 0 0 Z M-7 8 C-7.66 8.66 -8.32 9.32 -9 10 C-9 11.32 -9 12.64 -9 14 C-7.02 14 -5.04 14 -3 14 C-3.33 12.35 -3.66 10.7 -4 9 C-4.99 8.67 -5.98 8.34 -7 8 Z M-35 24 C-36.42055068 26.00136244 -36.42055068 26.00136244 -37 28 C-35.95243414 29.27116763 -35.95243414 29.27116763 -33.60191345 29.12025452 C-32.00640404 29.1169236 -32.00640404 29.1169236 -30.37866211 29.11352539 C-29.17749252 29.11344986 -27.97632294 29.11337433 -26.73875427 29.11329651 C-24.77785606 29.10555458 -24.77785606 29.10555458 -22.77734375 29.09765625 C-21.43355868 29.09579198 -20.08977293 29.09436812 -18.74598694 29.09336853 C-15.20317723 29.08954402 -11.6604083 29.07971432 -8.11761475 29.06866455 C-4.50484773 29.05844899 -0.89207416 29.0538706 2.72070312 29.04882812 C9.8138188 29.03809198 16.90690674 29.02101636 24 29 C23.36653211 25.54305257 23.36653211 25.54305257 20.58984375 23.27270508 C15.81847541 21.58111482 11.58728059 21.58833233 6.5625 21.63671875 C5.56420166 21.63622025 4.56590332 21.63572174 3.53735352 21.63520813 C1.43275963 21.63754213 -0.67183738 21.64723077 -2.77636719 21.66381836 C-5.98918748 21.68742057 -9.20117743 21.68437257 -12.4140625 21.67773438 C-14.46354659 21.68331146 -16.5130272 21.69042153 -18.5625 21.69921875 C-19.51890381 21.69830734 -20.47530762 21.69739594 -21.46069336 21.69645691 C-26.32482539 21.74790864 -30.49315114 21.93692302 -35 24 Z M-54 37 C-54.6814823 38.89179203 -54.6814823 38.89179203 -55 41 C-53.04366025 43.41121859 -53.04366025 43.41121859 -49.375 43.125 C-48.26125 43.08375 -47.1475 43.0425 -46 43 C-46 41.02 -46 39.04 -46 37 C-48.64 37 -51.28 37 -54 37 Z M-38 37 C-38 51.52 -38 66.04 -38 81 C-35.32899717 82.33550141 -33.28768776 82.12714001 -30.296875 82.12939453 C-29.10223633 82.13254669 -27.90759766 82.13569885 -26.67675781 82.13894653 C-24.7330127 82.13591019 -24.7330127 82.13591019 -22.75 82.1328125 C-21.41243472 82.13348589 -20.07486955 82.13445621 -18.73730469 82.13571167 C-15.93293087 82.13718698 -13.12858888 82.13503943 -10.32421875 82.13037109 C-6.7260281 82.12467389 -3.12791203 82.12795378 0.47027588 82.13394356 C3.23259037 82.13755366 5.99488713 82.13640851 8.75720215 82.13381577 C10.73038786 82.13282237 12.70357426 82.1358642 14.67675781 82.13894653 C15.87139648 82.13579437 17.06603516 82.13264221 18.296875 82.12939453 C19.35229492 82.12859894 20.40771484 82.12780334 21.49511719 82.12698364 C23.99831465 82.16807422 23.99831465 82.16807422 26 81 C26 66.48 26 51.96 26 37 C4.88 37 -16.24 37 -38 37 Z M34 37 C34 38.98 34 40.96 34 43 C37.36704285 43.2295711 39.41370268 43.33943529 42.375 41.625 C42.91125 41.08875 43.4475 40.5525 44 40 C44 39.34 44 38.68 44 38 C41.71294169 36.85647084 40.40735238 36.89665561 37.875 36.9375 C35.956875 36.9684375 35.956875 36.9684375 34 37 Z " fill="#E10931" transform="translate(65,3)"/>
<path d="M0 0 C3.25 1.9375 3.25 1.9375 5 5 C5.17089844 7.26782227 5.17089844 7.26782227 5.109375 9.69140625 C5.09358398 10.49908447 5.07779297 11.3067627 5.06152344 12.13891602 C5.0412207 12.75307373 5.02091797 13.36723145 5 14 C6.21816406 13.95359375 7.43632813 13.9071875 8.69140625 13.859375 C10.31507948 13.82183342 11.93877945 13.78543583 13.5625 13.75 C14.36236328 13.71648438 15.16222656 13.68296875 15.98632812 13.6484375 C21.87385704 13.55231458 25.17642864 14.58355965 30 18 C32.5 21 32.5 21 34 24 C33.75 26.375 33.75 26.375 33 28 C32.505 26.515 32.505 26.515 32 25 C30.00334402 23.32932867 28.00348966 21.66247014 26 20 C26 19.34 26 18.68 26 18 C25.34 18 24.68 18 24 18 C24 17.34 24 16.68 24 16 C22.73542969 16.10699219 21.47085938 16.21398437 20.16796875 16.32421875 C18.50787355 16.44614665 16.84771357 16.56719467 15.1875 16.6875 C14.35412109 16.76033203 13.52074219 16.83316406 12.66210938 16.90820312 C11.85966797 16.96298828 11.05722656 17.01777344 10.23046875 17.07421875 C9.12288208 17.16062622 9.12288208 17.16062622 7.99291992 17.2487793 C6 17 6 17 4.25390625 15.62304688 C1.99076577 12.69365476 2.82422865 9.57401752 3 6 C2.34 6 1.68 6 1 6 C1 5.34 1 4.68 1 4 C0.34 4 -0.32 4 -1 4 C-1 3.34 -1 2.68 -1 2 C-4.3 2 -7.6 2 -11 2 C-11 2.66 -11 3.32 -11 4 C-11.66 4 -12.32 4 -13 4 C-13 4.66 -13 5.32 -13 6 C-13.66 6 -14.32 6 -15 6 C-14.505 9.465 -14.505 9.465 -14 13 C-11.7522025 10.94766315 -10.9977758 9.99332739 -10 7 C-6.65284689 5.8842823 -5.28928478 5.8192311 -2 7 C-0.40339294 9.88909849 0 11.69058796 0 15 C-0.66 15 -1.32 15 -2 15 C-2 15.99 -2 16.98 -2 18 C-2.99 18.33 -3.98 18.66 -5 19 C-4.04746338 19.03758423 -4.04746338 19.03758423 -3.07568359 19.07592773 C-0.17528458 19.19256789 2.72484349 19.31498393 5.625 19.4375 C6.62402344 19.47681641 7.62304688 19.51613281 8.65234375 19.55664062 C13.50956104 19.76572614 18.22132044 20.02958555 23 21 C23 21.66 23 22.32 23 23 C23.66 23 24.32 23 25 23 C25 23.66 25 24.32 25 25 C25.66 25 26.32 25 27 25 C27 26.32 27 27.64 27 29 C26.01 29 25.02 29 24 29 C23.773125 28.38125 23.54625 27.7625 23.3125 27.125 C21.50252928 24.19457122 20.33196209 23.95862602 17 23 C13.55196021 22.72031213 10.11779032 22.74369328 6.66015625 22.76953125 C5.66044296 22.76998947 4.66072968 22.77044769 3.63072205 22.7709198 C1.52016002 22.77393567 -0.59039991 22.78180203 -2.70092773 22.79418945 C-5.92244402 22.81241482 -9.14367196 22.81469918 -12.36523438 22.81445312 C-14.41927331 22.81937009 -16.4733103 22.82519918 -18.52734375 22.83203125 C-19.48688461 22.83314407 -20.44642548 22.8342569 -21.43504333 22.83540344 C-28.27455715 22.86403528 -28.27455715 22.86403528 -35 24 C-36.43637698 25.95163118 -36.43637698 25.95163118 -37 28 C-37.33 27.34 -37.66 26.68 -38 26 C-37.67 25.01 -37.34 24.02 -37 23 C-36.34 23 -35.68 23 -35 23 C-35 22.34 -35 21.68 -35 21 C-30.9472484 20.01751476 -27.16138263 19.91840426 -23 20 C-23 19.01 -23 18.02 -23 17 C-21.35 16.67 -19.7 16.34 -18 16 C-24.6 16.66 -31.2 17.32 -38 18 C-38 18.66 -38 19.32 -38 20 C-38.598125 20.556875 -39.19625 21.11375 -39.8125 21.6875 C-42.57705642 24.61003107 -43.56174818 27.26054527 -45 31 C-49.62 31.33 -54.24 31.66 -59 32 C-60.86397425 37.17770624 -61.18958712 39.92937721 -59 45 C-58.67 45.99 -58.34 46.98 -58 48 C-56.88625 47.814375 -55.7725 47.62875 -54.625 47.4375 C-51 47 -51 47 -49 48 C-49 47.01 -49 46.02 -49 45 C-50.32 45 -51.64 45 -53 45 C-53 44.34 -53 43.68 -53 43 C-50.69 43 -48.38 43 -46 43 C-46 41.02 -46 39.04 -46 37 C-48.64 37.33 -51.28 37.66 -54 38 C-54 39.65 -54 41.3 -54 43 C-54.66 42.67 -55.32 42.34 -56 42 C-56 40.02 -56 38.04 -56 36 C-54.20909747 35.80533668 -52.41723495 35.61948787 -50.625 35.4375 C-49.12839844 35.28087891 -49.12839844 35.28087891 -47.6015625 35.12109375 C-45 35 -45 35 -43 36 C-42.375 38.0625 -42.375 38.0625 -42 40 C-41.67 38.68 -41.34 37.36 -41 36 C-18.23 36 4.54 36 28 36 C28 38.97 28 41.94 28 45 C27.34 45 26.68 45 26 45 C26 42.36 26 39.72 26 37 C4.88 37 -16.24 37 -38 37 C-38 51.52 -38 66.04 -38 81 C-17.21 81 3.58 81 25 81 C25 81.66 25 82.32 25 83 C22.35855803 84.32072098 20.37834382 84.12711336 17.42041016 84.12939453 C16.25224762 84.13254669 15.08408508 84.13569885 13.88052368 84.13894653 C12.61284149 84.1369223 11.3451593 84.13489807 10.0390625 84.1328125 C8.74181244 84.13376923 7.44456238 84.13472595 6.10800171 84.13571167 C3.35909844 84.13718728 0.61022763 84.13503917 -2.13867188 84.13037109 C-5.65819585 84.12468511 -9.17764339 84.12794647 -12.69716454 84.13394356 C-16.05592826 84.13843296 -19.4146716 84.13528595 -22.7734375 84.1328125 C-24.03707123 84.13483673 -25.30070496 84.13686096 -26.60263062 84.13894653 C-27.77709747 84.13579437 -28.95156433 84.13264221 -30.16162109 84.12939453 C-31.1948349 84.12859894 -32.22804871 84.12780334 -33.29257202 84.12698364 C-35.71851574 84.01320216 -37.72058271 83.82834632 -40 83 C-41.14654482 80.70691037 -41.19729117 79.20090344 -41.31640625 76.6484375 C-41.37356812 75.49867432 -41.37356812 75.49867432 -41.43188477 74.32568359 C-41.47498779 73.35195801 -41.51809082 72.37823242 -41.5625 71.375 C-41.706875 68.28125 -41.85125 65.1875 -42 62 C-42.66 69.59 -43.32 77.18 -44 85 C-44.66 85 -45.32 85 -46 85 C-46 73.78 -46 62.56 -46 51 C-48.97 51 -51.94 51 -55 51 C-59.26813143 49.41921058 -61.61592573 47.85277332 -64 44 C-64.60176969 40.61707851 -64.52421674 37.39331697 -64 34 C-62.125 31.375 -62.125 31.375 -60 30 C-59.34 30 -58.68 30 -58 30 C-58 29.34 -58 28.68 -58 28 C-54.04 28.33 -50.08 28.66 -46 29 C-46 27.35 -46 25.7 -46 24 C-45 21.6875 -45 21.6875 -44 20 C-43.34 20 -42.68 20 -42 20 C-42 19.34 -42 18.68 -42 18 C-36.32146877 14.1279277 -32.35417692 13.46541724 -25.5625 13.75 C-24.73556641 13.76804687 -23.90863281 13.78609375 -23.05664062 13.8046875 C-21.03725067 13.8513786 -19.01846555 13.92310607 -17 14 C-17.02030273 13.38584229 -17.04060547 12.77168457 -17.06152344 12.13891602 C-17.08520996 10.92739868 -17.08520996 10.92739868 -17.109375 9.69140625 C-17.12967773 8.89162354 -17.14998047 8.09184082 -17.17089844 7.26782227 C-17 5 -17 5 -15.25 1.9375 C-10.28264831 -1.02380582 -5.63257487 -0.94135575 0 0 Z M-7 8 C-7.66 8.66 -8.32 9.32 -9 10 C-9 11.32 -9 12.64 -9 14 C-7.02 14 -5.04 14 -3 14 C-3.33 12.35 -3.66 10.7 -4 9 C-4.99 8.67 -5.98 8.34 -7 8 Z " fill="#DA1A3D" transform="translate(65,3)"/>
<path d="M0 0 C-0.33 0.66 -0.66 1.32 -1 2 C-2.65 2 -4.3 2 -6 2 C-6 2.99 -6 3.98 -6 5 C-11.94 5.495 -11.94 5.495 -18 6 C-18 6.66 -18 7.32 -18 8 C-18.66 8 -19.32 8 -20 8 C-20.33 9.65 -20.66 11.3 -21 13 C11.175 13.495 11.175 13.495 44 14 C44 13.01 44 12.02 44 11 C46 12 48 13 50 14 C50 14.66 50 15.32 50 16 C50.60328125 15.91621094 51.2065625 15.83242188 51.828125 15.74609375 C52.62734375 15.64425781 53.4265625 15.54242188 54.25 15.4375 C55.03890625 15.33308594 55.8278125 15.22867188 56.640625 15.12109375 C59.00532874 14.99972651 60.7511037 15.30366743 63 16 C63 16.66 63 17.32 63 18 C63.66 18 64.32 18 65 18 C67.83022097 21.99560608 66.76210446 25.42737323 66 30 C65.505 29.01 65.505 29.01 65 28 C63.515 28.495 63.515 28.495 62 29 C62 28.34 62 27.68 62 27 C61.34 27 60.68 27 60 27 C60.33 26.34 60.66 25.68 61 25 C61.66 25.33 62.32 25.66 63 26 C62.67 24.35 62.34 22.7 62 21 C60.02 21 58.04 21 56 21 C56 20.34 56 19.68 56 19 C54.02 19 52.04 19 50 19 C49.67 20.98 49.34 22.96 49 25 C48.505 23.515 48.505 23.515 48 22 C24.24 21.67 0.48 21.34 -24 21 C-24 22.65 -24 24.3 -24 26 C-24.66 25.67 -25.32 25.34 -26 25 C-26 23.68 -26 22.36 -26 21 C-30.29 21 -34.58 21 -39 21 C-38.67 22.98 -38.34 24.96 -38 27 C-37.34 27 -36.68 27 -36 27 C-36 27.99 -36 28.98 -36 30 C-34.68 30 -33.36 30 -32 30 C-32 30.99 -32 31.98 -32 33 C-34.97 33 -37.94 33 -41 33 C-43.70013745 29.07252735 -45.41470607 26.52715935 -44.875 21.6875 C-44 18 -44 18 -42 16 C-38.7421875 15.8046875 -38.7421875 15.8046875 -34.875 15.875 C-32.95300781 15.90207031 -32.95300781 15.90207031 -30.9921875 15.9296875 C-29.51105469 15.96449219 -29.51105469 15.96449219 -28 16 C-27.82984375 15.37351562 -27.6596875 14.74703125 -27.484375 14.1015625 C-27.24203125 13.28429688 -26.9996875 12.46703125 -26.75 11.625 C-26.51796875 10.81289063 -26.2859375 10.00078125 -26.046875 9.1640625 C-24.7785108 6.54214546 -23.67576692 6.00617682 -21 5 C-21 4.34 -21 3.68 -21 3 C-14.04487713 1.37556087 -7.18915368 -0.21785314 0 0 Z " fill="#E0042B" transform="translate(48,18)"/>
<path d="M0 0 C6 0 6 0 7.7578125 1.72265625 C8.20898438 2.49480469 8.66015625 3.26695313 9.125 4.0625 C9.86363281 5.28646484 9.86363281 5.28646484 10.6171875 6.53515625 C11.07351563 7.34855469 11.52984375 8.16195313 12 9 C12.39445312 9.69996094 12.78890625 10.39992188 13.1953125 11.12109375 C13.71738281 12.05115234 13.71738281 12.05115234 14.25 13 C15.67004083 16.06304098 15.67004083 16.06304098 18 17 C18.26425781 16.30519531 18.52851563 15.61039063 18.80078125 14.89453125 C20.11416974 11.72443069 21.57187803 8.71540478 23.1875 5.6875 C23.73792969 4.61886719 24.28835938 3.55023438 24.85546875 2.44921875 C25.56316406 1.64097656 26.27085937 0.83273437 27 0 C29.31 0 31.62 0 34 0 C34 9.9 34 19.8 34 30 C31.69 30 29.38 30 27 30 C26.34 25.71 25.68 21.42 25 17 C24.113125 18.65 23.22625 20.3 22.3125 22 C20.80078125 24.8125 20.80078125 24.8125 19 27 C16.5 27.625 16.5 27.625 14 27 C11.46383478 23.91919192 9.90004649 20.53497021 8 17 C7.67 21.29 7.34 25.58 7 30 C4.69 30 2.38 30 0 30 C0 20.1 0 10.2 0 0 Z " fill="#161616" transform="translate(273,8)"/>
<path d="M0 0 C1.98 0 3.96 0 6 0 C8.01171875 2.01171875 8.01171875 2.01171875 9.6875 4.6875 C10.24824219 5.55761719 10.80898437 6.42773438 11.38671875 7.32421875 C11.91910156 8.20722656 12.45148438 9.09023438 13 10 C13.56332031 10.89332031 14.12664062 11.78664063 14.70703125 12.70703125 C16 15 16 15 16 17 C16.66 17 17.32 17 18 17 C18.26425781 16.30519531 18.52851563 15.61039063 18.80078125 14.89453125 C20.11416974 11.72443069 21.57187803 8.71540478 23.1875 5.6875 C23.73792969 4.61886719 24.28835937 3.55023438 24.85546875 2.44921875 C25.56316406 1.64097656 26.27085937 0.83273437 27 0 C29.31 0 31.62 0 34 0 C34 9.9 34 19.8 34 30 C31.69 30 29.38 30 27 30 C26.67 25.38 26.34 20.76 26 16 C24.948125 17.815 23.89625 19.63 22.8125 21.5 C21.01953125 24.59375 21.01953125 24.59375 19 27 C16.46875 27.65625 16.46875 27.65625 14 27 C11.46383478 23.91919192 9.90004649 20.53497021 8 17 C7.67 21.29 7.34 25.58 7 30 C4.69 30 2.38 30 0 30 C0 20.1 0 10.2 0 0 Z " fill="#171717" transform="translate(134,8)"/>
<path d="M0 0 C6 0 6 0 7.7578125 1.72265625 C8.20898438 2.49480469 8.66015625 3.26695313 9.125 4.0625 C9.86363281 5.28646484 9.86363281 5.28646484 10.6171875 6.53515625 C11.07351562 7.34855469 11.52984375 8.16195313 12 9 C12.39445313 9.69996094 12.78890625 10.39992188 13.1953125 11.12109375 C13.71738281 12.05115234 13.71738281 12.05115234 14.25 13 C15.67004083 16.06304098 15.67004083 16.06304098 18 17 C18.26425781 16.30519531 18.52851563 15.61039063 18.80078125 14.89453125 C20.11416974 11.72443069 21.57187803 8.71540478 23.1875 5.6875 C23.73792969 4.61886719 24.28835937 3.55023438 24.85546875 2.44921875 C25.56316406 1.64097656 26.27085937 0.83273437 27 0 C29.31 0 31.62 0 34 0 C34 9.9 34 19.8 34 30 C31.69 30 29.38 30 27 30 C26.67 25.38 26.34 20.76 26 16 C24.948125 17.815 23.89625 19.63 22.8125 21.5 C21.01953125 24.59375 21.01953125 24.59375 19 27 C16.46875 27.65625 16.46875 27.65625 14 27 C11.46383478 23.91919192 9.90004649 20.53497021 8 17 C7.67 21.29 7.34 25.58 7 30 C4.69 30 2.38 30 0 30 C0 20.1 0 10.2 0 0 Z " fill="#171717" transform="translate(224,8)"/>
<path d="M0 0 C7 0 7 0 8.77270508 1.14575195 C9.18415771 1.67128662 9.59561035 2.19682129 10.01953125 2.73828125 C10.48423828 3.31126953 10.94894531 3.88425781 11.42773438 4.47460938 C11.88470703 5.08111328 12.34167969 5.68761719 12.8125 6.3125 C13.52696289 7.20485352 13.52696289 7.20485352 14.25585938 8.11523438 C16.28915303 10.67472498 18.1866235 13.27993525 20 16 C20.33 10.72 20.66 5.44 21 0 C23.31 0 25.62 0 28 0 C28 10.23 28 20.46 28 31 C22 31 22 31 19.5859375 28.98828125 C18.85632813 28.10527344 18.12671875 27.22226563 17.375 26.3125 C16.64023437 25.44238281 15.90546875 24.57226562 15.1484375 23.67578125 C13.09599822 21.11956142 11.04789165 18.55986457 9 16 C8.67 20.95 8.34 25.9 8 31 C5.36 31 2.72 31 0 31 C0 20.77 0 10.54 0 0 Z " fill="#161616" transform="translate(349,59)"/>
<path d="M0 0 C3.70535024 3.27449556 6.18142203 6.43519875 7.03515625 11.39453125 C7.24339936 16.12979845 6.29145734 19.46906399 3.6875 23.375 C-0.26039735 27.36604377 -3.83878 29.49712269 -9.5 29.6875 C-15.93843346 29.59312557 -20.35103922 27.3854973 -24.8125 22.8125 C-26.94358796 17.92875675 -27.0789865 13.62308614 -26.3125 8.375 C-23.99166109 3.46553307 -21.01090347 1.01785195 -16.3125 -1.625 C-10.68163191 -3.44066767 -5.23590549 -2.56855741 0 0 Z M-17.3125 7.375 C-18.8527467 10.99123139 -19.56521313 13.26306222 -18.6875 17.125 C-17.08480375 19.74759386 -16.05740999 20.96545163 -13.3125 22.375 C-8.91656563 23.01440864 -7.04153411 22.88687502 -3.375 20.3125 C-0.77922891 16.6154927 -0.59996412 14.80855658 -1.3125 10.375 C-2.72128096 7.3848357 -2.72128096 7.3848357 -5.3125 5.375 C-10.26844291 3.93327115 -13.4141218 3.8107685 -17.3125 7.375 Z " fill="#161616" transform="translate(346.3125,9.625)"/>
<path d="M0 0 C2.31 0 4.62 0 7 0 C7 3.96 7 7.92 7 12 C11.29 12 15.58 12 20 12 C20 8.04 20 4.08 20 0 C22.64 0 25.28 0 28 0 C28 10.23 28 20.46 28 31 C25.36 31 22.72 31 20 31 C20 27.04 20 23.08 20 19 C15.71 19 11.42 19 7 19 C7 22.96 7 26.92 7 31 C4.69 31 2.38 31 0 31 C0 20.77 0 10.54 0 0 Z " fill="#161616" transform="translate(270,59)"/>
<path d="M0 0 C0.98484375 -0.00128906 1.9696875 -0.00257812 2.984375 -0.00390625 C4.02078125 -0.00003906 5.0571875 0.00382812 6.125 0.0078125 C7.67960937 0.00201172 7.67960937 0.00201172 9.265625 -0.00390625 C10.25046875 -0.00261719 11.2353125 -0.00132813 12.25 0 C13.16007812 0.00112793 14.07015625 0.00225586 15.0078125 0.00341797 C17.125 0.1328125 17.125 0.1328125 18.125 1.1328125 C18.125 3.1128125 18.125 5.0928125 18.125 7.1328125 C12.845 7.1328125 7.565 7.1328125 2.125 7.1328125 C2.125 8.7828125 2.125 10.4328125 2.125 12.1328125 C6.745 12.1328125 11.365 12.1328125 16.125 12.1328125 C16.125 14.4428125 16.125 16.7528125 16.125 19.1328125 C11.505 19.1328125 6.885 19.1328125 2.125 19.1328125 C2.125 21.1128125 2.125 23.0928125 2.125 25.1328125 C7.405 25.1328125 12.685 25.1328125 18.125 25.1328125 C18.125 27.1128125 18.125 29.0928125 18.125 31.1328125 C10.205 31.1328125 2.285 31.1328125 -5.875 31.1328125 C-5.8979132 26.87859536 -5.91783889 22.62459093 -5.92993164 18.37036133 C-5.93497101 16.92211177 -5.94180253 15.47386733 -5.95043945 14.02563477 C-5.96252247 11.94806662 -5.96823211 9.87056553 -5.97265625 7.79296875 C-5.97789307 6.54136963 -5.98312988 5.28977051 -5.98852539 4.00024414 C-5.80254095 -0.69736294 -4.23770496 0.00525211 0 0 Z " fill="#161616" transform="translate(317.875,58.8671875)"/>
<path d="M0 0 C2.64 0 5.28 0 8 0 C8 3.96 8 7.92 8 12 C11.96 12 15.92 12 20 12 C20 8.04 20 4.08 20 0 C22.64 0 25.28 0 28 0 C28 9.9 28 19.8 28 30 C25.36 30 22.72 30 20 30 C20 26.04 20 22.08 20 18 C16.04 18 12.08 18 8 18 C8 21.96 8 25.92 8 30 C5.36 30 2.72 30 0 30 C0 20.1 0 10.2 0 0 Z " fill="#171717" transform="translate(400,8)"/>
<path d="M0 0 C2.31 0 4.62 0 7 0 C7.33 3.96 7.66 7.92 8 12 C8.7734375 11.13375 9.546875 10.2675 10.34375 9.375 C11.39472043 8.24896026 12.44686675 7.12401722 13.5 6 C14.25796875 5.14148438 14.25796875 5.14148438 15.03125 4.265625 C18.91729731 0.18527533 18.91729731 0.18527533 22.19140625 -0.375 C24.40625 -0.375 24.40625 -0.375 28 0 C26.42219077 3.71045247 24.09296752 6.29906384 21.375 9.25 C20.55773437 10.14203125 19.74046875 11.0340625 18.8984375 11.953125 C18.27195313 12.62859375 17.64546875 13.3040625 17 14 C17.36351562 14.4846875 17.72703125 14.969375 18.1015625 15.46875 C19.1568751 16.87583347 20.21151748 18.28341977 21.265625 19.69140625 C22.41687877 21.22381837 23.57309776 22.75251349 24.734375 24.27734375 C25.27578125 24.99019531 25.8171875 25.70304687 26.375 26.4375 C27.12910156 27.42556641 27.12910156 27.42556641 27.8984375 28.43359375 C29 30 29 30 29 31 C25.83263104 31.59388168 23.1530746 31.73361212 20 31 C16.79440751 28.39446916 14.27954922 25.4410634 12 22 C12 21.34 12 20.68 12 20 C9.89788303 20.96663749 9.89788303 20.96663749 8 23 C7.33450549 25.69924572 7.18319237 28.20631637 7 31 C4.69 31 2.38 31 0 31 C0 20.77 0 10.54 0 0 Z " fill="#141414" transform="translate(134,59)"/>
<path d="M0 0 C0.625 2.0625 0.625 2.0625 1 4 C1.33 2.68 1.66 1.36 2 0 C24.77 0 47.54 0 71 0 C71 2.97 71 5.94 71 9 C70.34 9 69.68 9 69 9 C69 6.36 69 3.72 69 1 C47.88 1 26.76 1 5 1 C5 15.52 5 30.04 5 45 C25.79 45 46.58 45 68 45 C68 45.66 68 46.32 68 47 C65.35855803 48.32072098 63.37834382 48.12711336 60.42041016 48.12939453 C59.25224762 48.13254669 58.08408508 48.13569885 56.88052368 48.13894653 C55.61284149 48.1369223 54.3451593 48.13489807 53.0390625 48.1328125 C51.74181244 48.13376923 50.44456238 48.13472595 49.10800171 48.13571167 C46.35909844 48.13718728 43.61022763 48.13503917 40.86132812 48.13037109 C37.34180415 48.12468511 33.82235661 48.12794647 30.30283546 48.13394356 C26.94407174 48.13843296 23.5853284 48.13528595 20.2265625 48.1328125 C18.96292877 48.13483673 17.69929504 48.13686096 16.39736938 48.13894653 C15.22290253 48.13579437 14.04843567 48.13264221 12.83837891 48.12939453 C11.8051651 48.12859894 10.77195129 48.12780334 9.70742798 48.12698364 C7.28148426 48.01320216 5.27941729 47.82834632 3 47 C1.85345518 44.70691037 1.80270883 43.20090344 1.68359375 40.6484375 C1.62075195 39.37226562 1.62075195 39.37226562 1.55664062 38.0703125 C1.51732422 37.18085937 1.47800781 36.29140625 1.4375 35.375 C1.39431641 34.4778125 1.35113281 33.580625 1.30664062 32.65625 C1.20043285 30.43768761 1.09970041 28.21886435 1 26 C0.67 30.62 0.34 35.24 0 40 C-0.33 40 -0.66 40 -1 40 C-0.98428955 39.28344238 -0.9685791 38.56688477 -0.95239258 37.82861328 C-0.89018137 34.59415524 -0.85105351 31.35982281 -0.8125 28.125 C-0.78736328 26.99707031 -0.76222656 25.86914062 -0.73632812 24.70703125 C-0.72666016 23.63066406 -0.71699219 22.55429687 -0.70703125 21.4453125 C-0.6913208 20.45031738 -0.67561035 19.45532227 -0.65942383 18.43017578 C-0.77181396 17.62821777 -0.8842041 16.82625977 -1 16 C-3.90092502 14.06604999 -4.89674737 13.69868059 -8.1875 13.375 C-9.445625 13.25125 -10.70375 13.1275 -12 13 C-10.125 11.9375 -10.125 11.9375 -8 11 C-7.34 11.33 -6.68 11.66 -6 12 C-6 11.01 -6 10.02 -6 9 C-7.32 9 -8.64 9 -10 9 C-10 8.34 -10 7.68 -10 7 C-7.69 7 -5.38 7 -3 7 C-3 5.02 -3 3.04 -3 1 C-5.64 1.33 -8.28 1.66 -11 2 C-11 3.65 -11 5.3 -11 7 C-11.66 6.67 -12.32 6.34 -13 6 C-13 4.02 -13 2.04 -13 0 C-8.70336653 -1.01097258 -4.08261196 -2.04130598 0 0 Z " fill="#CD1B39" transform="translate(22,39)"/>
<path d="M0 0 C2.05078125 0.03255208 4.1015625 0.06510417 6.15234375 0.09765625 C8.00610995 4.2083297 9.85746007 8.32007908 11.70654297 12.43286133 C12.33640701 13.83290244 12.96693959 15.23264299 13.59814453 16.63208008 C14.50337293 18.63935655 15.40622058 20.64768865 16.30859375 22.65625 C16.59295288 23.28542831 16.87731201 23.91460663 17.17028809 24.56285095 C19.15234375 28.98378454 19.15234375 28.98378454 19.15234375 30.09765625 C16.18234375 30.09765625 13.21234375 30.09765625 10.15234375 30.09765625 C9.49234375 28.44765625 8.83234375 26.79765625 8.15234375 25.09765625 C3.86234375 24.76765625 -0.42765625 24.43765625 -4.84765625 24.09765625 C-5.50765625 26.07765625 -6.16765625 28.05765625 -6.84765625 30.09765625 C-9.48765625 30.09765625 -12.12765625 30.09765625 -14.84765625 30.09765625 C-12.77023966 23.36608676 -10.15022927 17.00054176 -7.22265625 10.59765625 C-6.8153125 9.69273438 -6.40796875 8.7878125 -5.98828125 7.85546875 C-2.48576793 0.13138308 -2.48576793 0.13138308 0 0 Z M1.15234375 9.09765625 C0.16234375 12.06765625 -0.82765625 15.03765625 -1.84765625 18.09765625 C0.46234375 18.09765625 2.77234375 18.09765625 5.15234375 18.09765625 C4.59505462 14.7539215 3.80060486 12.06452626 2.15234375 9.09765625 C1.82234375 9.09765625 1.49234375 9.09765625 1.15234375 9.09765625 Z " fill="#161616" transform="translate(193.84765625,7.90234375)"/>
<path d="M0 0 C-0.33 1.98 -0.66 3.96 -1 6 C-1.66 5.835 -2.32 5.67 -3 5.5 C-6.73099794 4.87816701 -10.21873378 4.93591074 -14 5 C-14 5.99 -14 6.98 -14 8 C-13.18015625 8.24234375 -12.3603125 8.4846875 -11.515625 8.734375 C-10.43796875 9.06953125 -9.3603125 9.4046875 -8.25 9.75 C-7.18265625 10.07484375 -6.1153125 10.3996875 -5.015625 10.734375 C-1.82354388 12.07405671 -0.16098562 13.32058315 2 16 C2.60161756 19.0749342 2.62942123 20.96457805 0.9765625 23.68359375 C-1.18513815 26.4151973 -2.66468002 27.88822667 -6 29 C-12.73412645 29.62197971 -17.84321281 28.73634986 -24 26 C-23.34 24.02 -22.68 22.04 -22 20 C-21.41992188 20.15597656 -20.83984375 20.31195312 -20.2421875 20.47265625 C-15.47483073 21.66056198 -11.87179712 22.24917875 -7 21 C-7.33 20.01 -7.66 19.02 -8 18 C-10.16555171 17.11670229 -10.16555171 17.11670229 -12.75 16.5625 C-16.96151373 15.38593098 -20.11100989 14.46678813 -23 11 C-23.66793107 6.91819902 -23.44930028 4.8087405 -21.4375 1.1875 C-15.47070889 -4.16731253 -6.54944392 -4.36629595 0 0 Z " fill="#141414" transform="translate(484,10)"/>
<path d="M0 0 C0.94875 0.66 1.8975 1.32 2.875 2 C2.625 3.875 2.625 3.875 1.875 6 C-0.1875 7.25 -0.1875 7.25 -2.125 8 C-3.115 7.34 -4.105 6.68 -5.125 6 C-7.07879499 5.72214568 -7.07879499 5.72214568 -9.125 5.8125 C-10.1459375 5.82216797 -10.1459375 5.82216797 -11.1875 5.83203125 C-13.34258209 5.94302254 -13.34258209 5.94302254 -16.125 7 C-16.89990216 11.2853023 -17.5214493 14.8106521 -16.125 19 C-14.16850571 21.27154483 -14.16850571 21.27154483 -10.8125 22 C-6.71303597 22 -4.58906239 21.11223317 -1.125 19 C0.195 19.99 1.515 20.98 2.875 22 C2.6875 23.8125 2.6875 23.8125 1.875 26 C-3.51195653 29.97035079 -8.67906128 29.74376216 -15.125 29 C-19.52650444 27.75473451 -22.29209066 25.26843653 -24.625 21.375 C-26.70846558 16.5105608 -26.67946205 12.03154823 -25.125 7 C-22.98605802 3.34765568 -20.427987 0.83246391 -16.875 -1.4375 C-10.94909641 -2.64961664 -5.38420333 -3.08606776 0 0 Z " fill="#151515" transform="translate(254.125,61)"/>
<path d="M0 0 C8.58 0 17.16 0 26 0 C26 2.31 26 4.62 26 7 C23.03 7 20.06 7 17 7 C17 14.92 17 22.84 17 31 C14.36 31 11.72 31 9 31 C9 23.08 9 15.16 9 7 C6.03 7 3.06 7 0 7 C0 4.69 0 2.38 0 0 Z " fill="#161616" transform="translate(193,59)"/>
<path d="M0 0 C8.91 0 17.82 0 27 0 C27 1.98 27 3.96 27 6 C23.7 6 20.4 6 17 6 C17 13.92 17 21.84 17 30 C14.36 30 11.72 30 9 30 C9 22.08 9 14.16 9 6 C6.03 6 3.06 6 0 6 C0 4.02 0 2.04 0 0 Z " fill="#171717" transform="translate(362,8)"/>
<path d="M0 0 C2.31 0 4.62 0 7 0 C7 10.23 7 20.46 7 31 C4.69 31 2.38 31 0 31 C0 20.77 0 10.54 0 0 Z " fill="#151515" transform="translate(174,59)"/>
<path d="M0 0 C3.3 0 6.6 0 10 0 C10 0.66 10 1.32 10 2 C10.66 2 11.32 2 12 2 C12 2.66 12 3.32 12 4 C12.66 4 13.32 4 14 4 C14.1953125 6.01822917 14.390625 8.03645833 14.5859375 10.0546875 C14.86374749 12.22668245 14.86374749 12.22668245 17 14 C19.32275177 14.40047444 21.65739357 14.7397104 24 15 C24 15.99 24 16.98 24 18 C17.4 18 10.8 18 4 18 C4.66 17.34 5.32 16.68 6 16 C6.99 16 7.98 16 9 16 C9 15.01 9 14.02 9 13 C9.66 13 10.32 13 11 13 C10.34 10.36 9.68 7.72 9 5 C6.36 5 3.72 5 1 5 C0.896875 5.598125 0.79375 6.19625 0.6875 6.8125 C-0.08876455 9.28243264 -1.07088921 10.32251235 -3 12 C-4 11 -4 11 -4.0625 7.4375 C-4.041875 6.303125 -4.02125 5.16875 -4 4 C-3.34 4 -2.68 4 -2 4 C-2 3.34 -2 2.68 -2 2 C-1.34 2 -0.68 2 0 2 C0 1.34 0 0.68 0 0 Z " fill="#E1042B" transform="translate(54,5)"/>
<path d="M0 0 C1.79244141 0.01740234 1.79244141 0.01740234 3.62109375 0.03515625 C5.41740234 0.04869141 5.41740234 0.04869141 7.25 0.0625 C8.17683594 0.07410156 9.10367188 0.08570313 10.05859375 0.09765625 C10.05859375 0.42765625 10.05859375 0.75765625 10.05859375 1.09765625 C6.09859375 1.09765625 2.13859375 1.09765625 -1.94140625 1.09765625 C-1.90998535 2.09619629 -1.87856445 3.09473633 -1.84619141 4.12353516 C-1.73716114 7.84683659 -1.66855673 11.56999862 -1.61181641 15.29443359 C-1.58173934 16.90274829 -1.54086502 18.51090023 -1.48876953 20.11865234 C-1.41554013 22.43758336 -1.38186341 24.75433803 -1.35546875 27.07421875 C-1.32450104 27.78695953 -1.29353333 28.49970032 -1.2616272 29.23403931 C-1.25919343 32.88723227 -1.84598637 35.66655292 -4.02539062 38.5625 C-9.19023829 43.04422951 -16.75523808 41.82516332 -23.18359375 41.68359375 C-24.6771575 41.67239235 -26.17074341 41.66385662 -27.66433716 41.65786743 C-31.58086845 41.63504233 -35.49604824 41.57617729 -39.41204834 41.50964355 C-43.41383585 41.44808228 -47.41584343 41.42082313 -51.41796875 41.390625 C-59.25973235 41.3264247 -67.10040082 41.22412562 -74.94140625 41.09765625 C-74.94140625 40.76765625 -74.94140625 40.43765625 -74.94140625 40.09765625 C-73.72658066 40.08219505 -73.72658066 40.08219505 -72.48721313 40.06642151 C-64.86479909 39.9685526 -57.24246821 39.86605344 -49.62018776 39.75831699 C-45.70124776 39.70308941 -41.7823003 39.64966968 -37.86328125 39.6003418 C-34.08311745 39.55269579 -30.30304551 39.50035292 -26.52299118 39.4447155 C-25.07888442 39.42429301 -23.63475248 39.40557974 -22.19060135 39.38858223 C-20.17209374 39.36453619 -18.15366763 39.33391748 -16.13525391 39.30297852 C-14.40983871 39.27966209 -14.40983871 39.27966209 -12.64956665 39.25587463 C-9.97375975 39.27811896 -9.97375975 39.27811896 -7.94140625 38.09765625 C-7.94140625 37.43765625 -7.94140625 36.77765625 -7.94140625 36.09765625 C-7.28140625 35.76765625 -6.62140625 35.43765625 -5.94140625 35.09765625 C-4.62838311 31.57392012 -4.7518336 27.90066631 -4.66015625 24.1796875 C-4.64174683 23.52183762 -4.6233374 22.86398773 -4.60437012 22.186203 C-4.52590478 19.38121294 -4.45766674 16.57600041 -4.38916016 13.77075195 C-4.33757561 11.71943792 -4.28030767 9.66833852 -4.22265625 7.6171875 C-4.19236328 6.39104736 -4.16207031 5.16490723 -4.13085938 3.90161133 C-3.87130522 0.06014292 -3.87247869 0.12856835 0 0 Z " fill="#C12A44" transform="translate(100.94140625,52.90234375)"/>
<path d="M0 0 C3.25 1.9375 3.25 1.9375 5 5 C5.17089844 7.26782227 5.17089844 7.26782227 5.109375 9.69140625 C5.09358398 10.49908447 5.07779297 11.3067627 5.06152344 12.13891602 C5.03106934 13.06015259 5.03106934 13.06015259 5 14 C6.21816406 13.95359375 7.43632813 13.9071875 8.69140625 13.859375 C10.31507948 13.82183342 11.93877945 13.78543583 13.5625 13.75 C14.36236328 13.71648438 15.16222656 13.68296875 15.98632812 13.6484375 C21.87385704 13.55231458 25.17642864 14.58355965 30 18 C32.5 21 32.5 21 34 24 C33.75 26.375 33.75 26.375 33 28 C32.505 26.515 32.505 26.515 32 25 C30.00334402 23.32932867 28.00348966 21.66247014 26 20 C26 19.34 26 18.68 26 18 C25.34 18 24.68 18 24 18 C24 17.34 24 16.68 24 16 C22.73542969 16.10699219 21.47085938 16.21398437 20.16796875 16.32421875 C18.50787355 16.44614665 16.84771357 16.56719467 15.1875 16.6875 C14.35412109 16.76033203 13.52074219 16.83316406 12.66210938 16.90820312 C11.85966797 16.96298828 11.05722656 17.01777344 10.23046875 17.07421875 C9.12288208 17.16062622 9.12288208 17.16062622 7.99291992 17.2487793 C6 17 6 17 4.25390625 15.62304688 C1.99076577 12.69365476 2.82422865 9.57401752 3 6 C2.34 6 1.68 6 1 6 C1 5.34 1 4.68 1 4 C0.34 4 -0.32 4 -1 4 C-1 3.34 -1 2.68 -1 2 C-4.3 2 -7.6 2 -11 2 C-11 2.66 -11 3.32 -11 4 C-11.66 4 -12.32 4 -13 4 C-13 4.66 -13 5.32 -13 6 C-13.66 6 -14.32 6 -15 6 C-15.33 8.64 -15.66 11.28 -16 14 C-16.33 14 -16.66 14 -17 14 C-17.45445803 9.36452812 -17.60446764 6.05781838 -15.25 1.9375 C-10.28264831 -1.02380582 -5.63257487 -0.94135575 0 0 Z " fill="#DA2D4A" transform="translate(65,3)"/>
<path d="M0 0 C1.32 0 2.64 0 4 0 C4 0.66 4 1.32 4 2 C25.78 2 47.56 2 70 2 C70.495 2.99 70.495 2.99 71 4 C62.33367939 4.20024827 53.66721183 4.38396212 45.000103 4.54658794 C40.97559186 4.62262148 36.95136399 4.7043415 32.92724609 4.79907227 C29.04357904 4.89028721 25.15987955 4.96654496 21.27570343 5.03244972 C19.79403994 5.06021662 18.31246722 5.0933677 16.83104706 5.13199425 C14.75551235 5.18519089 12.68047938 5.21921252 10.60449219 5.2487793 C9.42312683 5.27320602 8.24176147 5.29763275 7.02459717 5.32279968 C3.70996806 4.96904638 2.32343245 4.35597658 0 2 C0 1.34 0 0.68 0 0 Z " fill="#E82041" transform="translate(21,89)"/>
<path d="M0 0 C0.33 0 0.66 0 1 0 C1.33 7.26 1.66 14.52 2 22 C23.45 22 44.9 22 67 22 C66.67 22.66 66.34 23.32 66 24 C46.53 24 27.06 24 7 24 C7 24.66 7 25.32 7 26 C6.34 26 5.68 26 5 26 C5 25.34 5 24.68 5 24 C3.35 23.67 1.7 23.34 0 23 C0 23.66 0 24.32 0 25 C-0.99 24.67 -1.98 24.34 -3 24 C-2.69479039 20.18687909 -2.37961671 16.37464766 -2.0625 12.5625 C-1.97548828 11.47388672 -1.88847656 10.38527344 -1.79882812 9.26367188 C-1.71181641 8.22919922 -1.62480469 7.19472656 -1.53515625 6.12890625 C-1.456604 5.17056885 -1.37805176 4.21223145 -1.29711914 3.22485352 C-1 1 -1 1 0 0 Z " fill="#E50E35" transform="translate(23,64)"/>
<path d="M0 0 C1.2375 0.1546875 1.2375 0.1546875 2.5 0.3125 C4.5 3.3125 4.5 3.3125 4.328125 5.46875 C4.13734375 6.2421875 3.9465625 7.015625 3.75 7.8125 C3.56953125 8.5859375 3.3890625 9.359375 3.203125 10.15625 C2.5 12.3125 2.5 12.3125 0.5 15.3125 C-2.125 15.5 -2.125 15.5 -4.5 15.3125 C-4.314375 14.178125 -4.12875 13.04375 -3.9375 11.875 C-3.793125 10.699375 -3.64875 9.52375 -3.5 8.3125 C-3.83 7.9825 -4.16 7.6525 -4.5 7.3125 C-4.6875 4.875 -4.6875 4.875 -4.5 2.3125 C-2.5 0.3125 -2.5 0.3125 0 0 Z " fill="#161616" transform="translate(445.5,5.6875)"/>
<path d="M0 0 C2.475 1.485 2.475 1.485 5 3 C4.8125 4.8125 4.8125 4.8125 4 7 C0.25967502 9.78506213 -2.44069268 10.38845891 -7.0625 10.3125 C-8.08472656 10.30863281 -9.10695312 10.30476563 -10.16015625 10.30078125 C-12.94132634 10.0062144 -14.62614466 9.42886736 -17 8 C-14.29120665 6.64560332 -11.99066732 6.93498549 -9 7 C-8.67 6.01 -8.34 5.02 -8 4 C-5.69747517 2.93097061 -3.3627974 1.92824183 -1 1 C-0.67 0.67 -0.34 0.34 0 0 Z " fill="#151515" transform="translate(252,80)"/>
<path d="M0 0 C1.4540625 0.0309375 1.4540625 0.0309375 2.9375 0.0625 C2.9375 0.7225 2.9375 1.3825 2.9375 2.0625 C1.2875 2.3925 -0.3625 2.7225 -2.0625 3.0625 C-2.0625 4.0525 -2.0625 5.0425 -2.0625 6.0625 C-0.4125 6.0625 1.2375 6.0625 2.9375 6.0625 C3.5975 4.7425 4.2575 3.4225 4.9375 2.0625 C7.27083333 2.0625 9.60416667 2.0625 11.9375 2.0625 C12.783125 2.041875 13.62875 2.02125 14.5 2 C16.9375 2.0625 16.9375 2.0625 17.9375 3.0625 C17.97813832 4.72867115 17.980221 6.39638095 17.9375 8.0625 C14.784132 8.76324844 12.21025026 9.0625 8.9375 9.0625 C7.60525391 9.11470703 7.60525391 9.11470703 6.24609375 9.16796875 C4.82490234 9.20857422 4.82490234 9.20857422 3.375 9.25 C1.94994141 9.30220703 1.94994141 9.30220703 0.49609375 9.35546875 C-2.0625 9.0625 -2.0625 9.0625 -3.91796875 7.71484375 C-5.0625 6.0625 -5.0625 6.0625 -4.8125 3.4375 C-3.75114865 0.07655405 -3.75114865 0.07655405 0 0 Z M5.9375 3.0625 C5.9375 4.3825 5.9375 5.7025 5.9375 7.0625 C6.9275 7.0625 7.9175 7.0625 8.9375 7.0625 C8.6075 5.7425 8.2775 4.4225 7.9375 3.0625 C7.2775 3.0625 6.6175 3.0625 5.9375 3.0625 Z M13.9375 3.0625 C13.6075 4.3825 13.2775 5.7025 12.9375 7.0625 C14.2575 6.7325 15.5775 6.4025 16.9375 6.0625 C16.6075 5.0725 16.2775 4.0825 15.9375 3.0625 C15.2775 3.0625 14.6175 3.0625 13.9375 3.0625 Z " fill="#0F0F0F" transform="translate(396.0625,80.9375)"/>
<path d="M0 0 C0.66 0 1.32 0 2 0 C2 0.66 2 1.32 2 2 C4.64 2 7.28 2 10 2 C9.34 2.66 8.68 3.32 8 4 C8.66 4.33 9.32 4.66 10 5 C9.67 6.32 9.34 7.64 9 9 C6.03 9 3.06 9 0 9 C-0.33 7.35 -0.66 5.7 -1 4 C-1.99 4 -2.98 4 -4 4 C-3.01 4.33 -2.02 4.66 -1 5 C-1.33 6.32 -1.66 7.64 -2 9 C-3.65 8.67 -5.3 8.34 -7 8 C-7 5 -7 5 -6 2 C-4.02 2 -2.04 2 0 2 C0 1.34 0 0.68 0 0 Z M2 3 C2 4.32 2 5.64 2 7 C3.98 7 5.96 7 8 7 C6.71034824 5.62437146 5.37310707 4.29233607 4 3 C3.34 3 2.68 3 2 3 Z " fill="#0D0D0E" transform="translate(477,81)"/>
<path d="M0 0 C0 0.33 0 0.66 0 1 C-1.11971191 1.02505615 -2.23942383 1.0501123 -3.39306641 1.07592773 C-7.5640728 1.17040014 -11.73492807 1.2705222 -15.90576172 1.37231445 C-17.70780898 1.41551311 -19.5098932 1.45719824 -21.31201172 1.49731445 C-23.90864175 1.55538376 -26.5050883 1.6189708 -29.1015625 1.68359375 C-29.9017984 1.70030624 -30.7020343 1.71701874 -31.52651978 1.73423767 C-35.75570901 1.84517834 -39.86751164 2.00496444 -44 3 C-45.43637698 4.95163118 -45.43637698 4.95163118 -46 7 C-46.33 6.34 -46.66 5.68 -47 5 C-46.67 4.01 -46.34 3.02 -46 2 C-45.34 2 -44.68 2 -44 2 C-44 1.34 -44 0.68 -44 0 C-30.15176904 -3.2372488 -14.09651183 -0.65850273 0 0 Z " fill="#CC2E4A" transform="translate(74,24)"/>
<path d="M0 0 C1.98 0 3.96 0 6 0 C6 0.66 6 1.32 6 2 C7.98 2 9.96 2 12 2 C12.33 3.65 12.66 5.3 13 7 C12.34 7 11.68 7 11 7 C11 6.01 11 5.02 11 4 C7.7 3.67 4.4 3.34 1 3 C1 4.98 1 6.96 1 9 C1.62648438 8.83242188 2.25296875 8.66484375 2.8984375 8.4921875 C3.71570313 8.28851563 4.53296875 8.08484375 5.375 7.875 C6.59316406 7.56175781 6.59316406 7.56175781 7.8359375 7.2421875 C8.90714844 7.12230469 8.90714844 7.12230469 10 7 C10.66 7.66 11.32 8.32 12 9 C10.78515625 10.50390625 10.78515625 10.50390625 9 12 C6.80859375 12.21484375 6.80859375 12.21484375 4.4375 11.9375 C3.65246094 11.86402344 2.86742188 11.79054688 2.05859375 11.71484375 C0 11 0 11 -1.33203125 9.17578125 C-2.36916011 5.79753109 -1.12506698 3.25019349 0 0 Z " fill="#D72141" transform="translate(98,37)"/>
<path d="M0 0 C0.82693359 0.01804687 1.65386719 0.03609375 2.50585938 0.0546875 C4.52524933 0.1013786 6.54403445 0.17310607 8.5625 0.25 C8.5625 0.58 8.5625 0.91 8.5625 1.25 C-1.8325 2.735 -1.8325 2.735 -12.4375 4.25 C-12.4375 4.91 -12.4375 5.57 -12.4375 6.25 C-13.96875 7.7578125 -13.96875 7.7578125 -15.9375 9.375 C-16.5871875 9.91382813 -17.236875 10.45265625 -17.90625 11.0078125 C-18.4115625 11.41773438 -18.916875 11.82765625 -19.4375 12.25 C-19.4375 9.25 -19.4375 9.25 -18.4375 6.25 C-17.7775 6.25 -17.1175 6.25 -16.4375 6.25 C-16.4375 5.59 -16.4375 4.93 -16.4375 4.25 C-10.75896877 0.3779277 -6.79167692 -0.28458276 0 0 Z " fill="#CB2D47" transform="translate(39.4375,16.75)"/>
<path d="M0 0 C4.33333333 0 8.66666667 0 13 0 C14.125 4.75 14.125 4.75 13 7 C8.25 6.125 8.25 6.125 6 5 C6 5.66 6 6.32 6 7 C4.35 7 2.7 7 1 7 C0.67 7.66 0.34 8.32 0 9 C0 6.03 0 3.06 0 0 Z M3 1 C2.01 2.485 2.01 2.485 1 4 C2.32 4.33 3.64 4.66 5 5 C4.67 3.68 4.34 2.36 4 1 C3.67 1 3.34 1 3 1 Z M10 1 C9.67 1.66 9.34 2.32 9 3 C9.99 3 10.98 3 12 3 C12 2.34 12 1.68 12 1 C11.34 1 10.68 1 10 1 Z " fill="#0B0B0D" transform="translate(432,83)"/>
<path d="M0 0 C2.86130829 0.31792314 4.82885783 0.89823979 7.3125 2.375 C9.99645559 6.55004202 9.78759892 11.17506966 9 16 C7.66015625 18.34375 7.66015625 18.34375 6 20 C5.01 20 4.02 20 3 20 C3 19.34 3 18.68 3 18 C3.66 18 4.32 18 5 18 C5.19627391 16.41773035 5.38165538 14.83410729 5.5625 13.25 C5.66691406 12.36828125 5.77132812 11.4865625 5.87890625 10.578125 C5.99456676 8.11567549 5.73638695 6.33461936 5 4 C4.34 4 3.68 4 3 4 C1.375 2 1.375 2 0 0 Z " fill="#CF2D48" transform="translate(108,32)"/>
<path d="M0 0 C2.31 0 4.62 0 7 0 C7 10.23 7 20.46 7 31 C5.02 31 3.04 31 1 31 C0.67 30.34 0.34 29.68 0 29 C1.98 29 3.96 29 6 29 C5.9278125 28.37996094 5.855625 27.75992188 5.78125 27.12109375 C4.93558138 19.05200562 4.90157389 11.10374993 5 3 C3.68 3 2.36 3 1 3 C0.67 2.01 0.34 1.02 0 0 Z " fill="#0A0A0A" transform="translate(370,59)"/>
<path d="M0 0 C2.20826378 -0.02722517 4.41662638 -0.04649729 6.625 -0.0625 C7.85476562 -0.07410156 9.08453125 -0.08570312 10.3515625 -0.09765625 C13.67723791 -0.00863924 16.74047588 0.36313913 20 1 C20 1.66 20 2.32 20 3 C20.66 3 21.32 3 22 3 C22 3.66 22 4.32 22 5 C22.66 5 23.32 5 24 5 C24 6.32 24 7.64 24 9 C23.01 9 22.02 9 21 9 C20.773125 8.38125 20.54625 7.7625 20.3125 7.125 C18.55457092 4.2788291 17.16735973 4.03283469 14 3 C11.57207848 2.56730111 9.13283495 2.19495037 6.6875 1.875 C5.43324219 1.70742188 4.17898437 1.53984375 2.88671875 1.3671875 C1.93410156 1.24601562 0.98148437 1.12484375 0 1 C0 0.67 0 0.34 0 0 Z " fill="#DE2342" transform="translate(68,23)"/>
<path d="M0 0 C1.4783226 2.95664519 1.06032783 5.74229737 1 9 C-1.57213134 10.61949011 -2.67669159 11.04408751 -5.75 10.625 C-6.86375 10.315625 -6.86375 10.315625 -8 10 C-8 9.34 -8 8.68 -8 8 C-5.69 8 -3.38 8 -1 8 C-1 6.02 -1 4.04 -1 2 C-3.64 2.33 -6.28 2.66 -9 3 C-9 4.65 -9 6.3 -9 8 C-9.66 7.67 -10.32 7.34 -11 7 C-11 5.02 -11 3.04 -11 1 C-7.26562152 0.12132271 -3.83225427 -0.08912219 0 0 Z " fill="#D52342" transform="translate(20,38)"/>
<path d="M0 0 C17.49305012 -0.75600217 17.49305012 -0.75600217 23 4 C25.5 7 25.5 7 27 10 C26.75 12.375 26.75 12.375 26 14 C25.67 13.01 25.34 12.02 25 11 C23.00334402 9.32932867 21.00348966 7.66247014 19 6 C19 5.34 19 4.68 19 4 C18.34 4 17.68 4 17 4 C17 3.34 17 2.68 17 2 C11.39 1.67 5.78 1.34 0 1 C0 0.67 0 0.34 0 0 Z " fill="#C63148" transform="translate(72,17)"/>
<path d="M0 0 C1.32 0 2.64 0 4 0 C4 0.99 4 1.98 4 3 C6.64 3 9.28 3 12 3 C8.86501708 4.85776765 6.62528568 5.20140476 3 5 C3 6.65 3 8.3 3 10 C2.01 9.67 1.02 9.34 0 9 C0 7.02 0 5.04 0 3 C-0.66 2.67 -1.32 2.34 -2 2 C-1.34 1.34 -0.68 0.68 0 0 Z " fill="#E50F35" transform="translate(6,34)"/>
<path d="M0 0 C1.67282031 2.88941691 2 4.6591357 2 8 C-1.93670488 9.31223496 -4.12488144 8.24296256 -8 7 C-8 4.69 -8 2.38 -8 0 C-5.01122021 -1.4943899 -3.14997454 -0.91874257 0 0 Z M-5 1 C-5.66 1.66 -6.32 2.32 -7 3 C-7 4.32 -7 5.64 -7 7 C-5.02 7 -3.04 7 -1 7 C-1.33 5.35 -1.66 3.7 -2 2 C-2.99 1.67 -3.98 1.34 -5 1 Z " fill="#D32546" transform="translate(63,10)"/>
<path d="M0 0 C0.66 0 1.32 0 2 0 C2.33 1.32 2.66 2.64 3 4 C4.32 3.67 5.64 3.34 7 3 C6.814375 3.598125 6.62875 4.19625 6.4375 4.8125 C5.77906313 7.16408762 5.77906313 7.16408762 7 10 C4.525 9.01 4.525 9.01 2 8 C2 8.66 2 9.32 2 10 C1.34 10 0.68 10 0 10 C0 6.7 0 3.4 0 0 Z " fill="#101010" transform="translate(415,80)"/>
<path d="M0 0 C0.99 0.33 1.98 0.66 3 1 C3.33 6.94 3.66 12.88 4 19 C3.34 19 2.68 19 2 19 C1.67 14.38 1.34 9.76 1 5 C-0.32 6.98 -1.64 8.96 -3 11 C-3.66 10.34 -4.32 9.68 -5 9 C-4.34 9 -3.68 9 -3 9 C-2.67 7.02 -2.34 5.04 -2 3 C-1.34 3 -0.68 3 0 3 C0 2.01 0 1.02 0 0 Z " fill="#0D0D0D" transform="translate(249,19)"/>
<path d="M0 0 C0.99 0.33 1.98 0.66 3 1 C2.8125 2.8125 2.8125 2.8125 2 5 C-1.74032498 7.78506213 -4.44069268 8.38845891 -9.0625 8.3125 C-10.08472656 8.30863281 -11.10695312 8.30476563 -12.16015625 8.30078125 C-14.94132634 8.0062144 -16.62614466 7.42886736 -19 6 C-17 5 -17 5 -14.8125 5.4375 C-9.9016581 6.41966838 -6.39142153 6.8881414 -2.0625 4.125 C0.23215846 2.25436301 0.23215846 2.25436301 0 0 Z " fill="#0A0A0A" transform="translate(254,82)"/>
<path d="M0 0 C1.66611905 -0.042721 3.33382885 -0.04063832 5 0 C6 1 6 1 6.0625 4.0625 C6.041875 5.031875 6.02125 6.00125 6 7 C4.02 7 2.04 7 0 7 C0 4.69 0 2.38 0 0 Z " fill="#0D0D10" transform="translate(457,83)"/>
<path d="M0 0 C0.66 0 1.32 0 2 0 C2 1.98 2 3.96 2 6 C-4.93 6 -11.86 6 -19 6 C-19 5.67 -19 5.34 -19 5 C-13.06 4.67 -7.12 4.34 -1 4 C-0.67 2.68 -0.34 1.36 0 0 Z " fill="#0F0F0F" transform="translate(334,84)"/>
<path d="M0 0 C2.31 0 4.62 0 7 0 C7 3.96 7 7.92 7 12 C7.99 12.33 8.98 12.66 10 13 C9.01 13.33 8.02 13.66 7 14 C5.52924754 9.58774263 4.63115642 6.51718381 6 2 C5.01 2.33 4.02 2.66 3 3 C2.01 3 1.02 3 0 3 C0 2.01 0 1.02 0 0 Z " fill="#0B0B0B" transform="translate(270,59)"/>
<path d="M0 0 C1.66611905 -0.042721 3.33382885 -0.04063832 5 0 C6 1 6 1 6.0625 4.0625 C6.041875 5.031875 6.02125 6.00125 6 7 C3.36 7 0.72 7 -2 7 C-1.67 6.34 -1.34 5.68 -1 5 C0.65 5 2.3 5 4 5 C4.33 4.34 4.66 3.68 5 3 C4.360625 2.87625 3.72125 2.7525 3.0625 2.625 C2.381875 2.41875 1.70125 2.2125 1 2 C0.67 1.34 0.34 0.68 0 0 Z " fill="#0C0C0C" transform="translate(330,59)"/>
<path d="M0 0 C1.65 0 3.3 0 5 0 C4.34 0.66 3.68 1.32 3 2 C3.66 2.33 4.32 2.66 5 3 C4.67 4.32 4.34 5.64 4 7 C2.35 6.67 0.7 6.34 -1 6 C-1 3 -1 3 0 0 Z " fill="#0D0D0D" transform="translate(426,83)"/>
<path d="M0 0 C-1.36983503 3.16115776 -1.9890638 3.9927092 -5 6 C-5 4.68 -5 3.36 -5 2 C-5.598125 2.33 -6.19625 2.66 -6.8125 3 C-9 4 -9 4 -12 4 C-8.41084094 -0.78554541 -5.58334594 -0.37222306 0 0 Z " fill="#0A0A0A" transform="translate(162,59)"/>
<path d="M0 0 C-5.1468192 3.16727335 -9.158256 3.35050464 -15 3 C-12.35005657 1.59499644 -9.84288215 0.55703916 -6.9375 -0.1875 C-6.26589844 -0.36667969 -5.59429687 -0.54585937 -4.90234375 -0.73046875 C-3 -1 -3 -1 0 0 Z " fill="#0E0E0E" transform="translate(347,36)"/>
<path d="M0 0 C1.2065625 0.0309375 1.2065625 0.0309375 2.4375 0.0625 C2.4375 0.7225 2.4375 1.3825 2.4375 2.0625 C0.7875 2.0625 -0.8625 2.0625 -2.5625 2.0625 C-1.30708443 4.57333114 -0.06186512 4.93375446 2.4375 6.0625 C0.78135343 6.44468767 -0.88707024 6.77645102 -2.5625 7.0625 C-3.5625 6.0625 -3.5625 6.0625 -3.6875 3.5625 C-3.51717518 0.15600356 -3.41884482 0.08338646 0 0 Z " fill="#0A0A0D" transform="translate(450.5625,82.9375)"/>
<path d="M0 0 C1.2684375 0.12375 1.2684375 0.12375 2.5625 0.25 C4.5625 3.25 4.5625 3.25 4.1875 5.9375 C3.98125 6.700625 3.775 7.46375 3.5625 8.25 C2.9025 7.59 2.2425 6.93 1.5625 6.25 C1.9375 4.125 1.9375 4.125 2.5625 2.25 C1.94375 2.45625 1.325 2.6625 0.6875 2.875 C-0.01375 2.99875 -0.715 3.1225 -1.4375 3.25 C-2.0975 2.59 -2.7575 1.93 -3.4375 1.25 C-2.4375 0.25 -2.4375 0.25 0 0 Z " fill="#0C0C0C" transform="translate(445.4375,5.75)"/>
<path d="M0 0 C0.99 0.66 1.98 1.32 3 2 C1.79296875 3.51953125 1.79296875 3.51953125 0 5 C-2.26171875 5.07421875 -2.26171875 5.07421875 -4.6875 4.6875 C-5.49574219 4.56761719 -6.30398437 4.44773437 -7.13671875 4.32421875 C-7.75160156 4.21722656 -8.36648437 4.11023437 -9 4 C-9 3.67 -9 3.34 -9 3 C-6.69 3 -4.38 3 -2 3 C-2 2.34 -2 1.68 -2 1 C-1.34 0.67 -0.68 0.34 0 0 Z " fill="#E21839" transform="translate(107,44)"/>
<path d="M0 0 C0.66 0 1.32 0 2 0 C2.99 2.64 3.98 5.28 5 8 C2.36 8 -0.28 8 -3 8 C-2 6 -2 6 1 5 C0.67 3.35 0.34 1.7 0 0 Z " fill="#0F0F0F" transform="translate(208,30)"/>
<path d="M0 0 C0.66 0 1.32 0 2 0 C2 3.3 2 6.6 2 10 C1.34 10 0.68 10 0 10 C0 6.7 0 3.4 0 0 Z " fill="#101114" transform="translate(464,80)"/>
<path d="M0 0 C0.66 1.32 1.32 2.64 2 4 C1.01 4.33 0.02 4.66 -1 5 C-1 1 -1 1 0 0 Z M-5 1 C-4.01 2.32 -3.02 3.64 -2 5 C-3.32 4.67 -4.64 4.34 -6 4 C-5.67 3.01 -5.34 2.02 -5 1 Z " fill="#E8133B" transform="translate(54,13)"/>
<path d="M0 0 C0.99 0.33 1.98 0.66 3 1 C3 3 3 5 3 7 C1.0625 6.1875 1.0625 6.1875 -1 5 C-1.33 4.01 -1.66 3.02 -2 2 C-1.34 1.34 -0.68 0.68 0 0 Z " fill="#090909" transform="translate(419,83)"/>
<path d="M0 0 C2.97 0.495 2.97 0.495 6 1 C6 1.66 6 2.32 6 3 C6.66 3.33 7.32 3.66 8 4 C6.68 4.33 5.36 4.66 4 5 C3.67 4.34 3.34 3.68 3 3 C2.01 2.67 1.02 2.34 0 2 C0 1.34 0 0.68 0 0 Z " fill="#DE0428" transform="translate(85,20)"/>
<path d="M0 0 C1.2065625 0.0309375 1.2065625 0.0309375 2.4375 0.0625 C1.798125 0.289375 1.15875 0.51625 0.5 0.75 C-1.83443661 1.91500896 -1.83443661 1.91500896 -2.3125 4.6875 C-2.395 5.47125 -2.4775 6.255 -2.5625 7.0625 C-2.8925 7.0625 -3.2225 7.0625 -3.5625 7.0625 C-3.60504356 5.06295254 -3.60330783 3.06208364 -3.5625 1.0625 C-2.5625 0.0625 -2.5625 0.0625 0 0 Z " fill="#0F0F0F" transform="translate(315.5625,58.9375)"/>
<path d="M0 0 C0.33 0.99 0.66 1.98 1 3 C0.01 4.485 0.01 4.485 -1 6 C-3.625 6.1875 -3.625 6.1875 -6 6 C-5.67 5.01 -5.34 4.02 -5 3 C-3.02 3.495 -3.02 3.495 -1 4 C-0.67 2.68 -0.34 1.36 0 0 Z " fill="#0B0B0B" transform="translate(447,15)"/>
<path d="M0 0 C1.43088528 2.86177057 0.59991697 4.93375773 0 8 C-0.66 8 -1.32 8 -2 8 C-2.66 6.35 -3.32 4.7 -4 3 C-2.68 2.01 -1.36 1.02 0 0 Z " fill="#E60C36" transform="translate(28,24)"/>
<path d="M0 0 C0.66 0 1.32 0 2 0 C2 2.31 2 4.62 2 7 C1.34 7 0.68 7 0 7 C0 4.69 0 2.38 0 0 Z " fill="#0E0E10" transform="translate(454,83)"/>
<path d="M0 0 C0.33 0 0.66 0 1 0 C1 2.31 1 4.62 1 7 C0.67 7 0.34 7 0 7 C0 4.69 0 2.38 0 0 Z " fill="#090A0C" transform="translate(468,83)"/>
<path d="M0 0 C0.66 0.66 1.32 1.32 2 2 C1.01 1.67 0.02 1.34 -1 1 C-0.67 0.67 -0.34 0.34 0 0 Z " fill="#0A0C0C" transform="translate(468,80)"/>
<path d="M0 0 C0.66 0 1.32 0 2 0 C2 0.66 2 1.32 2 2 C1.34 2 0.68 2 0 2 C0 1.34 0 0.68 0 0 Z " fill="#0B0B0D" transform="translate(454,80)"/>
</svg>
